<svg xmlns="http://www.w3.org/2000/svg" viewBox="0 0 96 16"><title>cmake-init-logo</title><path d="M17.7518,8.6244A3.5807,3.5807,0,0,1,21.389,4.809a3.13,3.13,0,0,1,2.1289.8135L22.69,6.7318a1.7721,1.7721,0,0,0-1.2124-.5332c-1.1679,0-1.9809.962-1.9809,2.4258,0,1.4483.7983,2.4092,1.937,2.4092a2.4223,2.4223,0,0,0,1.4932-.62l.6948,1.123a3.6239,3.6239,0,0,1-2.3657.8877A3.4543,3.4543,0,0,1,17.7518,8.6244Z" fill="#4d6479"/><path d="M25.055,4.9867h1.4043l.1181.99h.06a3.0692,3.0692,0,0,1,2.2178-1.168,1.9744,1.9744,0,0,1,2.0107,1.3018,3.298,3.298,0,0,1,2.336-1.3018c1.538,0,2.2475,1.05,2.2475,2.8838v4.5537H33.7342V7.9145c0-1.1983-.355-1.6416-1.1089-1.6416a2.2561,2.2561,0,0,0-1.523.9023v5.0713H29.4017V7.9145c0-1.1983-.355-1.6416-1.1236-1.6416a2.2866,2.2866,0,0,0-1.5229.9023v5.0713h-1.7Z" fill="#4d6479"/><path d="M37.1336,10.2943c0-1.5517,1.2866-2.3652,4.2729-2.69-.0293-.7685-.34-1.42-1.3305-1.42a4.1355,4.1355,0,0,0-2.0406.71l-.6206-1.1387a5.676,5.676,0,0,1,2.9864-.9463c1.8042,0,2.706,1.1094,2.706,3.1348v4.3027H41.7024l-.1181-.7988h-.0591a3.5326,3.5326,0,0,1-2.2476.9765A2.03,2.03,0,0,1,37.1336,10.2943Zm4.2729,0V8.6684c-1.9809.2509-2.6318.7685-2.6318,1.4931,0,.65.4439.9317,1.05.9317A2.3062,2.3062,0,0,0,41.4065,10.2943Z" fill="#4d6479"/><path d="M45.1468,1.808h1.67V8.3285h.0444l2.6909-3.3418h1.8633L48.9319,7.9438l2.7354,4.3027H49.8187L47.9559,9.0971l-1.1387,1.3008v1.8486h-1.67Z" fill="#4d6479"/><path d="M52.0511,8.6244A3.5332,3.5332,0,0,1,55.3924,4.809c1.9663,0,3.0014,1.42,3.0014,3.4453a3.965,3.965,0,0,1-.0737.8281H53.7068a2.0781,2.0781,0,0,0,2.1441,2.0254,3.0342,3.0342,0,0,0,1.6855-.5322l.5767,1.0645a4.5767,4.5767,0,0,1-2.4839.7841A3.5007,3.5007,0,0,1,52.0511,8.6244Zm4.8642-.6953c0-1.124-.4878-1.8037-1.4785-1.8037a1.8232,1.8232,0,0,0-1.7446,1.8037Z" fill="#4d6479"/><path d="M15.12,12.2311,10.2325,3.7688,9.011,1.6532,1.6835,14.3467H16.3411Zm-9.772,0L9.0116,5.8838l3.6652,6.3473Z" fill="#4d6479"/><path d="M60.5555,1.6869h1.2671V7.308H60.5555Z" fill="#bbcada"/><path d="M63.15,1.6869h1.3018L65.9168,4.48l.5518,1.2422h.0346c-.0517-.5957-.1553-1.3887-.1553-2.0518V1.6869H67.555V7.308H66.2532L64.7874,4.5063l-.5518-1.2246h-.0341c.0517.621.1547,1.371.1547,2.0351V7.308H63.15Z" fill="#bbcada"/><path d="M68.8816,1.6869h1.2671V7.308H68.8816Z" fill="#bbcada"/><path d="M72.5706,2.7563H71.0267V1.6869H75.389V2.7563H73.846V7.308H72.5706Z" fill="#bbcada"/></svg>